<svg width="20" height="20" viewBox="0 0 20 20" fill="none"
    xmlns="http://www.w3.org/2000/svg">
    <path d="M5.41711 14.1665H14.4415C15.2331 14.1665 15.6289 14.1665 15.9515 14.0235C16.2359 13.8974 16.4794 13.6942 16.6543 13.437C16.8527 13.1452 16.9235 12.7557 17.0651 11.9769L18.1908 5.78576C18.2398 5.51582 18.2644 5.38084 18.2265 5.27545C18.1932 5.18299 18.1283 5.10526 18.0433 5.05599C17.9464 4.99984 17.8092 4.99984 17.5349 4.99984H4.16711M1.66699 1.6665H2.764C2.96624 1.6665 3.06736 1.6665 3.14914 1.70344C3.22122 1.736 3.28255 1.78841 3.32595 1.85453C3.37519 1.92955 3.39096 2.02943 3.42251 2.2292L5.74481 16.9371C5.77636 17.1369 5.79213 17.2368 5.84137 17.3118C5.88477 17.3779 5.9461 17.4303 6.01818 17.4629C6.09996 17.4998 6.20108 17.4998 6.40332 17.4998H15.8337" stroke="white" strokeWidth="1.5" strokeLinecap="round" strokeLinejoin="round" />
</svg>