
<svg width="21" height="21" viewBox="0 0 21 21" fill="none" xmlns="http://www.w3.org/2000/svg">
<g clip-path="url(#clip0_1_6477)">
<path d="M20.1607 12.695C20.1607 10.9063 18.9087 9.34564 17.0447 8.50098C17.1547 8.89098 17.218 9.29364 17.2293 9.70698C17.4153 9.81764 17.5953 9.93698 17.7633 10.067C18.7033 10.7923 19.222 11.725 19.222 12.695C19.222 13.6643 18.7053 14.5976 17.7633 15.3216C16.732 16.117 15.3453 16.5556 13.8593 16.5556C12.8573 16.5556 11.9007 16.3556 11.0673 15.983C10.55 16.085 10.012 16.1496 9.45801 16.1723C10.5947 17.0263 12.1467 17.5536 13.8593 17.5536C14.9587 17.5536 15.992 17.3376 16.8913 16.9556L19.1853 18.1263L18.722 15.7856C19.62 14.9456 20.1607 13.869 20.1607 12.695Z" fill="#6E6E6E"/>
<path d="M16.5771 9.0531C16.5645 8.64044 16.5025 8.2371 16.3931 7.84777C15.5925 4.99844 12.3045 2.86377 8.37047 2.86377C3.83647 2.86444 0.161133 5.6991 0.161133 9.19577C0.161133 10.7258 0.864466 12.1278 2.0358 13.2231L1.4318 16.2711L4.42047 14.7464C5.59247 15.2438 6.93847 15.5278 8.37047 15.5278C8.51647 15.5278 8.6618 15.5238 8.8058 15.5184C9.35847 15.4964 9.89713 15.4311 10.4158 15.3284C13.9598 14.6278 16.5798 12.1478 16.5798 9.19577C16.5791 9.14844 16.5785 9.1011 16.5771 9.0531ZM13.4578 12.6198C12.2131 13.5784 10.5711 14.1398 8.7958 14.2171C8.65513 14.2244 8.51313 14.2278 8.3698 14.2278C8.09513 14.2278 7.8238 14.2158 7.55513 14.1924C5.9298 14.0564 4.4358 13.5104 3.28313 12.6211C2.05847 11.6764 1.3838 10.4604 1.3838 9.1971C1.3838 7.93377 2.05847 6.71777 3.28313 5.7731C4.62647 4.7371 6.43313 4.16644 8.3698 4.16644C10.3071 4.16644 12.1145 4.7371 13.4565 5.7731C14.0645 6.24177 14.5358 6.7771 14.8585 7.35177C15.0625 7.71644 15.2058 8.0971 15.2851 8.48644C15.3325 8.72044 15.3565 8.95777 15.3565 9.19644C15.3565 10.4591 14.6825 11.6751 13.4578 12.6198Z" fill="#6E6E6E"/>
<path d="M11.2818 10.1129C11.7777 10.1129 12.1798 9.71085 12.1798 9.21489C12.1798 8.71894 11.7777 8.31689 11.2818 8.31689C10.7858 8.31689 10.3838 8.71894 10.3838 9.21489C10.3838 9.71085 10.7858 10.1129 11.2818 10.1129Z" fill="#6E6E6E"/>
<path d="M8.37066 10.1129C8.86661 10.1129 9.26866 9.71085 9.26866 9.21489C9.26866 8.71894 8.86661 8.31689 8.37066 8.31689C7.8747 8.31689 7.47266 8.71894 7.47266 9.21489C7.47266 9.71085 7.8747 10.1129 8.37066 10.1129Z" fill="#6E6E6E"/>
<path d="M5.45824 10.1137C5.95456 10.1137 6.3569 9.71139 6.3569 9.21507C6.3569 8.71875 5.95456 8.31641 5.45824 8.31641C4.96192 8.31641 4.55957 8.71875 4.55957 9.21507C4.55957 9.71139 4.96192 10.1137 5.45824 10.1137Z" fill="#6E6E6E"/>
</g>
<defs>
<clipPath id="clip0_1_6477">
<rect width="20" height="20" fill="white" transform="translate(0.161133 0.495117)"/>
</clipPath>
</defs>
</svg>
