<?xml version="1.0" encoding="utf-8"?>
<!-- Generator: Adobe Illustrator 22.0.1, SVG Export Plug-In . SVG Version: 6.00 Build 0)  -->
<svg version="1.1" id="Layer_1" xmlns="http://www.w3.org/2000/svg" xmlns:xlink="http://www.w3.org/1999/xlink" x="0px" y="0px"
	 viewBox="0 0 189 100" style="enable-background:new 0 0 189 100;" xml:space="preserve">
<style type="text/css">
	.st0{fill:url(#SVGID_1_);}
	.st1{fill:#FEC10D;}
	.st2{fill:url(#SVGID_2_);}
	.st3{fill:#FEFEFE;}
</style>
<g>
	<g>
		
			<linearGradient id="SVGID_1_" gradientUnits="userSpaceOnUse" x1="2.0066" y1="51.9773" x2="186.3703" y2="51.9773" gradientTransform="matrix(1 0 0 -1 0 102)">
			<stop  offset="0" style="stop-color:#423795"/>
			<stop  offset="0.302" style="stop-color:#873695"/>
			<stop  offset="0.5608" style="stop-color:#A93695"/>
			<stop  offset="1" style="stop-color:#DC2329"/>
		</linearGradient>
		<path class="st0" d="M98.7,98c-1.3,0-2.4-0.6-3.7-1.8c-0.4-0.4-0.8-0.7-1.2-1c-0.3-0.2-0.6-0.5-0.8-0.7c-0.8-0.8-1.4-1.7-2-2.6
			c-0.2-0.4-0.3-0.8-0.4-1.3l0-0.1c-0.4-2.1-1.2-4.7-4-6.3L86,83.8c-0.9-0.5-2-1.1-3-1.5c-0.5-0.3-1.1-0.3-1.5-0.4
			c-0.1,0-0.2,0-0.4-0.1c-1.5-0.3-2.8-0.5-4-0.5c-0.7,0-1.4,0.1-2.1,0.2l-0.1,0c-1.3,0.3-2.3,0.4-3.3,0.4c-0.6,0-0.8-0.2-1.1-0.4
			c-0.7-0.6-1.2-1.4-1.8-2.3c-0.3-0.5-0.7-1-1-1.4l-0.5-0.6c-1.2-1.6-2.4-3.2-3.9-4.6l-0.1-0.1l-0.1,0c-0.6-0.4-1.1-0.9-1.7-1.3
			l-0.1,0l-0.1,0c-0.3-0.1-0.8-0.4-1.6-0.4h-0.1l-0.1,0c-0.2,0-0.5,0-0.7,0c-0.8,0-1.7,0.1-2.7,0.5c-0.8,0.2-1.7,0.5-2.5,0.5
			c-0.9,0-1.7-0.1-2.6-0.1c-0.9,0-1.8,0-2.7,0.1l-0.1,0c-1.3,0.1-3,0.3-4.5,1.2c-0.8,0.5-3.1,2-2.7,5c0,0.4,0,0.8,0,1.3
			c0,0.3,0,0.6,0,0.9c0,0.8,0.1,1.6,0.2,2.2c0.1,0.4,0.1,0.8,0.2,1.1c0,0.7,0.2,1.4,0.3,2c0.1,0.8,0.2,1.6,0.2,2.3
			c-0.1,1.8,0,3.8,0,5.6c0,0.3,0,0.6,0,0.8c-1.6-0.6-3.1-1.5-4.7-2.5c-0.5-0.3-1.1-0.7-1.6-1c-2-1.2-4-1.3-5.4-1.3
			c-0.4,0-0.7,0-1.1,0c-0.5,0-0.9,0.1-1.2,0.3c0.2-1.2-0.3-2.5-1.4-3.1C25.1,85.9,24,84.6,23,83c-0.9-1.3-1.4-2.8-1.9-4.3L20.9,78
			c0-0.2,0.3-0.7,0.5-0.9c2.4-1,4.3-2.2,5.8-3.6c1.2-1.1,2.2-2.2,2.9-3.4l0.1-0.1l0-0.1c0.4-0.8,0.8-1.7,0.6-3c0-0.1,0-0.2,0.2-0.5
			l0.1-0.1c0.6-1.3,0.6-2.7,0.1-3.8c-0.3-0.6-0.8-1.4-1.9-1.8c-0.4-0.8-1.1-1.3-2-1.5c-0.4-0.9-1.3-1.6-2.5-1.6
			c-0.8,0-1.5,0.2-2,0.3c-0.3,0.1-0.5,0.1-0.7,0.1l-0.1,0c-0.4,0.1-0.7,0.2-1,0.2c-0.2,0-0.3,0-0.5,0c-1.3,0-2.4,0.4-3.4,0.7
			c-1,0.4-1.9,1.1-2.5,2.3c-0.6,1-1.3,1.4-2.5,1.4h-1.9c-0.2-0.5-0.4-1-0.3-1.6l0-0.1v-0.1c0-1.5-0.4-2.9-1.2-4.1
			c-0.7-1-1.7-1.7-2.7-2.2c-0.9-0.5-2-1.1-2.5-1.8c-0.6-0.8-1-1.4-1.2-2.2c-0.4-1.5-0.3-3.1-0.3-4.7c0-0.9,0-1.9,0-2.8
			C1.9,42.7,2,42.5,2,42.3c0.3-1.1,0.5-1.5,0.9-1.8L3,40.4c0.2-0.1,0.3-0.1,0.4-0.1c0.2,0,0.3,0.1,0.3,0.1l0,0.1l0,0.1
			c1.1,1.7,2.5,2.1,3.4,2.1c0.2,0,0.3,0,0.5,0c1.7-0.2,3.3-1.5,3.9-3.1c0.2-0.6,0.3-1.1,0.5-1.6c0.1-0.5,0.3-1,0.4-1.5
			c0.3-0.9,0.9-1.7,1.5-2.6c1.4-2.1,3.5-3.5,6.8-4.5c0.6-0.2,1.2-0.3,1.9-0.3c0.7,0,1.4,0.1,2.3,0.2c0.3,0.1,0.7,0.1,1,0.2
			c0.5,0.1,1,0.2,1.5,0.3c1.8,0.7,2.8,1.4,3.8,2.3c0.3,0.3,0.7,0.7,1,1c0.7,0.7,1.4,1.4,2.1,2c0.7,0.7,1.6,1.4,2.6,2
			c0.9,0.5,1.9,0.8,3.2,1l0.1,0c0.3,0,0.5,0,0.8,0c1.9,0,3.7-0.4,5.4-1.2c1.6-0.8,3.2-1.5,4.8-1.9l0.1,0c0.5-0.1,1-0.2,1.5-0.2
			c0.6,0,1.1,0.1,1.6,0.3c0.8,0.3,1.5,0.5,2.2,0.8c1.4,0.5,2.8,1,4.2,1.4c0.8,0.2,1.5,0.3,2.3,0.3c1.1,0,2-0.2,2.9-0.6
			c1.4-0.7,2.4-1.7,3.1-3.1c0.8-1.7,0.8-3.2,0-4.9c-0.5-1-1.3-1.5-1.9-1.8L67.2,27c-0.4-0.3-0.7-0.4-1-0.5c-0.1-0.1-0.3-0.1-0.4-0.2
			c-0.2-0.1-0.2-0.1-0.2-0.7c0.2-1.4,0.8-2.6,1.7-4.1c0.6-1,1.7-1.9,2.8-2.8c0.8-0.6,1.2-1.5,1.2-2.5v-4.5c0-0.5,0.2-0.8,0.6-1.1
			l0.1-0.1l0.1-0.1c0.6-0.4,1.2-0.9,1.7-0.9c0.6-0.1,1.1-0.1,1.6-0.1c0.4,0,0.7,0,0.9,0.1l0.3,0.1c0.5,0.1,1.1,0.2,1.7,0.2h1.8
			c2.7,0,5.2-0.7,7.3-1.4c2.3-0.8,4.5-1.7,6.4-2.6c2.4-1.2,4.8-2.1,7.3-2.9l0.1,0c1.5-0.4,3-0.9,4.4-0.9c0.3,0,0.6,0,0.9,0.1
			c3.5,0.6,4.1,2.2,4.2,2.8c0.2,1,0.6,2,1.3,3.2c0.9,1.6,2.3,2.4,3.9,2.4h3.5c0,0,0.2,0,0.3,0c0.8,0,1.5,0.3,2.2,1
			c1.1,1,2.3,2.1,3.5,3c1.3,1,2.7,1.4,4.5,1.4c0.3,0,0.5,0,0.8,0l0.1,0c1.4-0.2,2.2-1.1,2.7-1.6l0.1-0.1c0,0,0.3-0.3,0.4-0.4
			c0.4-0.4,0.8-0.9,1.1-1.6c0.4-0.7,0.8-1.4,1.3-1.9l0.1-0.1c0,0,0.1,0,0.1,0.1c1.1,1.7,2.4,3.4,3.5,5l3,4.2
			c1.1,1.6,2.1,3.1,3.1,4.8c0.6,0.9,1.1,1.7,1.6,2.6c0.8,1.4,1.7,2.8,2.7,4.2c0.3,0.4,0.5,0.9,0.8,1.4c0.4,0.8,0.8,1.5,1.4,2.3
			l0.1,0.1c0.4,0.5,1,1.2,2.1,1.2c0.5,0,0.9-0.2,1.3-0.3c0.6-0.2,1-0.4,1.5-0.6c0.2-0.1,0.4-0.2,0.6-0.3c0.4-0.2,0.9-0.3,1.2-0.3
			c0.5,0,0.9,0.2,1.3,0.6c0.6,0.9,1.5,1.5,2.5,1.5c0.3,0,0.6,0,1-0.2c1.3-0.1,2.2-0.8,2.7-1.3c0.1-0.1,0.2-0.2,0.3-0.3
			c0.5-0.4,0.8-0.4,1-0.4l0.1,0c0.3,0,0.6,0,0.9,0c0.8,0,1.3,0.1,1.8,0.4c0.9,0.6,1.6,1.3,2.2,2.1c0.3,0.5,0.6,0.9,0.9,1.4
			c0.6,1,1.3,2.1,2.1,3.1c0.9,1.2,1.8,2.1,2.7,2.6c1.1,0.7,2.4,1.1,3.8,1.1c0.6,0,1.2-0.1,1.8-0.2c0.2,0,0.4,0,0.6,0
			c0.4,0,0.7,0.1,1,0.3l0,0c0,0.1,0.1,0.2,0.1,0.5l0,0.1c-1,0.3-1.7,1.1-2.1,1.5l-0.3,0.3c-1,0.9-2.1,1.9-2.9,3.3
			c-0.2,0.3-0.3,0.5-0.4,0.7c-0.5,0.8-1.1,1.7-1.5,2.8c-0.5,1.4-1,2.8-2.2,3.7c-0.6,0.5-1.2,0.9-1.8,1c-0.7,0.2-1.4,0.3-2.5,0.3
			c-0.4,0-0.7,0-1.1,0c-0.4,0-0.8,0-1.2,0c-0.3,0-0.6,0-0.9,0c-2.3,0.2-3.8,1.6-4,3.7c0,0.1-0.2,0.4-0.3,0.7c-0.2,0.4-0.5,1-0.6,1.7
			c-0.1,0.3-0.2,0.6-0.3,0.9c-0.3,0.9-0.7,2.1-0.6,3.4l0,0.1l0,0.1c0,0.3,0.1,0.5,0.2,0.8c0,0.1,0,0.2,0.1,0.2
			c-0.1,0-0.3,0.1-0.6,0.2l-0.4,0.1c-0.6,0.1-1.3,0.2-2.1,0.2c-0.7,0-1.3,0.1-2,0.2c-0.9,0.2-1.7,0.3-2.4,0.3c-0.1,0-0.3,0-0.4,0
			c-0.2,0-0.3,0-0.5,0c-0.7,0-1.2,0.2-1.6,0.3c-0.1,0-0.2,0.1-0.2,0.1l-1.1,0.2l-0.4,1.1c-0.3,1,0,1.8,0.2,2.1l0.1,0.3l0.2,0.3
			c0.5,0.7,0.9,1.7,1.2,2.6c0.1,0.3,0.2,0.5,0.3,0.8l0,0.1c0.2,0.4,0.3,1,0.4,1.6c0.1,0.3,0.1,0.6,0.2,0.8l0,0.1
			c0.4,1.3,0.3,2.7,0.2,4.2l0,0.6l0,0.1c-0.1,0.5-0.1,1-0.3,1.3c-0.1,0.2-0.4,0.5-0.9,0.5c0,0,0,0,0,0c-0.4,0-0.7-0.1-1-0.4
			c-0.1-0.1-0.3-0.3-0.5-0.5c-0.1-0.1-0.2-0.3-0.4-0.4c-0.3-0.3-0.7-0.7-1.5-1c-1.1-0.4-2.4-0.9-3.9-1c-1.9-0.2-3.8-0.2-5.6-0.2
			c-1.8,0-3.5,0-5.2-0.1c-1.3-0.1-2.6-0.1-3.9-0.2c-0.8,0-1.6,0-2.4-0.1c-0.1,0-0.3,0-0.4,0c-1.1,0-2.1,0.3-2.9,0.6
			c-0.2,0.1-0.5,0.2-0.7,0.2l-0.1,0c-1,0.3-2.3,0.9-3.3,2.1c-0.3,0.3-0.6,0.6-0.8,1c-0.5,0-0.9-0.1-1.3-0.3l-0.2,0l-0.4-0.1
			c-1.2-0.4-2.6-0.8-4.1-0.8c-0.2,0-0.4,0-0.5,0c-1.5,0.1-3.2,0.5-4.5,2.5c-1,1.5-2.2,2.6-3.6,3.4c-1.6,0.9-3.2,2-4.6,3.3
			c-0.8,0.7-1.7,1.1-2.9,1.2C99,98,98.9,98,98.7,98z"/>
		<path class="st1" d="M105.6,4c0.2,0,0.4,0,0.6,0c1.5,0.3,2.4,0.7,2.6,1.4c0.3,1.1,0.8,2.3,1.5,3.6c1.2,2.2,3.3,3.5,5.7,3.5h3.4
			h0.1l0.1,0l0.1,0c0.2,0,0.5,0.2,0.9,0.5c1.2,1,2.3,2.1,3.7,3.1c1.6,1.2,3.5,1.8,5.7,1.8c0.3,0,0.6,0,0.9,0l0.1,0l0.1,0
			c2-0.3,3.3-1.5,3.9-2.1l0.2-0.2l0.1-0.2c0.1-0.1,0.2-0.2,0.2-0.3c0.3-0.4,0.7-0.8,1.1-1.4c0.7,0.9,1.4,1.9,2,2.8l3,4.1
			c1.1,1.6,2.1,3.1,3,4.6l0,0.1l0,0.1c0.5,0.8,1,1.6,1.5,2.5c0.9,1.4,1.8,2.9,2.7,4.3c0.2,0.4,0.5,0.8,0.7,1.3
			c0.4,0.8,0.9,1.7,1.6,2.6l0.1,0.1l0.1,0.1c0.5,0.6,1.6,1.9,3.7,1.9c0.8,0,1.5-0.2,2-0.4c0.7-0.2,1.2-0.5,1.7-0.7
			c0.2-0.1,0.3-0.2,0.5-0.2c0.1,0,0.2-0.1,0.3-0.1c1,1.3,2.4,2,3.9,2c0.5,0,1-0.1,1.5-0.2c1.9-0.2,3.1-1.3,3.6-1.8
			c0.1,0,0.1-0.1,0.2-0.1c0,0,0,0,0.1,0l0.1,0c0.3,0,0.6,0,0.8,0c0.4,0,0.5,0,0.6,0c0,0,0,0,0,0l0.1,0l0.1,0c0.6,0.4,1.2,1,1.6,1.6
			c0.3,0.5,0.6,0.9,0.9,1.4c0.7,1,1.4,2.1,2.2,3.2c0.7,0.9,1.7,2.2,3.2,3.1c1.1,0.7,2.2,1.1,3.5,1.3c-0.8,0.8-1.6,1.6-2.3,2.8
			c-0.1,0.2-0.3,0.4-0.4,0.6c-0.5,0.8-1.2,1.9-1.7,3.2c-0.5,1.4-0.9,2.3-1.5,2.8l-0.1,0l-0.1,0c-0.4,0.3-0.7,0.5-1,0.6l-0.1,0
			l-0.1,0c-0.4,0.1-0.9,0.2-1.7,0.2c-0.3,0-0.7,0-1,0c-0.4,0-0.8,0-1.3,0c-0.3,0-0.6,0-1,0l-0.1,0l-0.1,0c-3.1,0.2-5.4,2.3-5.7,5.2
			c0,0.1-0.1,0.2-0.1,0.3c-0.3,0.5-0.6,1.2-0.8,2.1c-0.1,0.2-0.1,0.5-0.2,0.8c-0.3,0.9-0.7,2.1-0.7,3.6c-0.3,0-0.6,0-0.8,0
			c-0.7,0-1.4,0.1-2.2,0.2l-0.1,0l-0.1,0c-0.7,0.1-1.4,0.3-2,0.3c-0.1,0-0.1,0-0.2,0c-0.2,0-0.5,0-0.7,0c-1,0-1.8,0.2-2.2,0.4
			l-0.1,0l-2.2,0.4l-0.7,2.2c-0.4,1.1-0.3,2.3,0.2,3.5l0.2,0.5l0.4,0.5c0.4,0.5,0.6,1.2,1,2.1c0.1,0.3,0.2,0.6,0.3,0.8l0,0.1l0,0.1
			c0.1,0.2,0.2,0.7,0.3,1.2c0.1,0.3,0.1,0.6,0.2,0.9l0,0.1l0,0.1c0.2,0.8,0.2,2,0.1,3.1c-0.4-0.4-1-0.9-1.9-1.2
			c-1.3-0.5-2.7-1-4.4-1.1c-2-0.2-3.9-0.2-5.7-0.2c-1.8,0-3.4,0-5-0.1c-1.4-0.1-2.8-0.1-4.1-0.2c-0.8,0-1.5,0-2.3,0
			c-0.2,0-0.4,0-0.6,0c-1.4,0-2.6,0.4-3.5,0.7c-0.2,0.1-0.4,0.1-0.6,0.2l-0.1,0l-0.1,0c-1.2,0.4-2.8,1.1-4.1,2.6
			c-0.1,0.1-0.1,0.1-0.2,0.2l-0.2,0l-0.4-0.1c-1.3-0.4-2.9-0.8-4.7-0.8c-0.2,0-0.4,0-0.7,0c-1.7,0.1-4.2,0.6-6,3.3
			c-0.8,1.2-1.8,2.1-2.9,2.7c-1.8,1-3.5,2.2-5,3.6c-0.4,0.4-1,0.6-1.7,0.7l0,0l0,0c-0.1,0-0.2,0-0.2,0c-0.5,0-1.2-0.1-2.3-1.3
			c-0.5-0.5-0.9-0.8-1.4-1.2c-0.3-0.2-0.5-0.4-0.6-0.5c-0.6-0.6-1.1-1.4-1.6-2.1c-0.1-0.2-0.1-0.4-0.2-0.6l0-0.1l0-0.1
			c-0.5-2.3-1.5-5.5-5-7.6l-0.1,0l-0.1,0l-0.6-0.3c-1-0.5-2-1.1-3.2-1.6c-0.8-0.4-1.6-0.5-2-0.5c-0.1,0-0.1,0-0.2,0
			c-1.6-0.4-3-0.5-4.4-0.5c-0.8,0-1.7,0.1-2.4,0.2l-0.1,0l-0.1,0c-1.1,0.3-1.9,0.4-2.7,0.4c-0.4-0.4-0.9-1.1-1.4-1.8
			c-0.3-0.5-0.7-1-1.1-1.5L68.9,76c-1.2-1.6-2.5-3.3-4.2-4.9l-0.1-0.1L64.5,71c-0.6-0.5-1.2-1-1.9-1.4l-0.1-0.1l-0.1-0.1
			c-0.4-0.2-1.2-0.6-2.5-0.6h-0.2l-0.2,0c-0.2,0-0.4,0-0.6,0c-0.8,0-2,0.1-3.3,0.6c-0.6,0.2-1.3,0.4-1.8,0.4c-0.9,0-1.8-0.1-2.6-0.1
			c-0.9,0-1.9,0-2.8,0.1l0,0l0,0l-0.1,0c-1.4,0.1-3.5,0.3-5.4,1.5c-2.8,1.8-4,4.1-3.6,6.9c0,0.2,0,0.6,0,1c0,0.3,0,0.7,0,1
			c0,1,0.1,1.9,0.3,2.6c0.1,0.4,0.1,0.7,0.1,1c0.1,0.8,0.2,1.5,0.3,2.2c0.1,0.7,0.2,1.4,0.2,1.9c0,1.1,0,2.2,0,3.3
			c-0.5-0.3-1-0.6-1.6-0.9c-0.5-0.3-1.1-0.7-1.7-1c-2.4-1.4-4.8-1.6-6.4-1.6c-0.2,0-0.4,0-0.6,0c-0.4-1-1.1-1.9-2.1-2.5
			c-1.1-0.8-2-1.8-2.9-3.2l0-0.1l0-0.1c-0.6-0.9-1-2-1.4-3.3c2.1-1,3.9-2.1,5.3-3.5c1.3-1.2,2.4-2.5,3.3-3.8l0.1-0.2l0.1-0.2
			c0.5-0.9,0.9-2.1,0.8-3.6l0,0l0.1-0.1c0.8-1.9,0.8-3.8,0.1-5.4c-0.5-1.1-1.3-1.9-2.3-2.5c-0.5-0.7-1.2-1.3-2.1-1.7
			c-0.8-1.2-2.2-1.9-3.8-1.9c-1,0-1.8,0.2-2.4,0.3c-0.2,0-0.4,0.1-0.6,0.1l-0.1,0l-0.1,0c-0.2,0-0.5,0.1-0.6,0.1c-0.2,0-0.3,0-0.5,0
			c-1.6,0-3,0.5-4.1,0.9c-1,0.4-2.5,1.2-3.6,3.2c-0.2,0.3-0.2,0.4-0.7,0.4h-0.2c0-1.8-0.6-3.5-1.6-5l0-0.1l0-0.1
			c-0.9-1.3-2.2-2.1-3.3-2.7l0,0l0,0c-0.5-0.3-1.5-0.8-1.9-1.3c-0.5-0.7-0.8-1.1-0.9-1.5c-0.3-1.2-0.3-2.6-0.3-4.2
			c0-0.8,0-1.6,0-2.4c1.3,1,2.7,1.2,3.5,1.2c0.2,0,0.5,0,0.7,0c2.5-0.3,4.8-2.1,5.6-4.4l0-0.1l0-0.1c0.2-0.5,0.3-1.1,0.5-1.6
			c0.1-0.5,0.3-1,0.4-1.4c0.2-0.6,0.7-1.3,1.3-2.1l0,0l0,0c1.1-1.7,2.9-2.8,5.7-3.7c0.4-0.1,0.9-0.2,1.4-0.2c0.5,0,1.1,0.1,1.9,0.2
			c0.3,0.1,0.7,0.1,1,0.2c0.4,0.1,0.8,0.1,1.1,0.2c1.4,0.6,2.3,1.1,3,1.9c0.3,0.3,0.6,0.6,1,1c0.7,0.7,1.4,1.4,2.1,2.1
			c0.8,0.8,1.8,1.6,2.9,2.3l0.1,0l0.1,0c1.1,0.6,2.4,1,3.9,1.2l0.1,0l0.1,0c0.3,0,0.6,0,0.9,0c2.2,0,4.2-0.5,6.2-1.4
			c1.5-0.7,3-1.4,4.4-1.7l0.1,0l0.1,0c0.3-0.1,0.6-0.1,0.9-0.1c0.3,0,0.6,0.1,0.9,0.2l0,0l0,0c0.7,0.2,1.3,0.5,2.1,0.7
			c1.4,0.5,2.9,1.1,4.4,1.4c1,0.2,1.9,0.4,2.8,0.4c1.4,0,2.7-0.3,3.8-0.9c1.8-0.9,3.1-2.2,4-4c1.1-2.2,1.1-4.5,0-6.7
			c-0.8-1.6-2.1-2.3-2.7-2.6l-0.1,0c-0.2-0.1-0.3-0.2-0.5-0.3c0.3-0.8,0.7-1.5,1.2-2.4c0.4-0.7,1.3-1.5,2.3-2.3c0.9-0.7,2-2,2-4.1
			v-4.1c0.5-0.4,0.7-0.5,0.8-0.5c0.5,0,0.9-0.1,1.3-0.1c0.3,0,0.4,0,0.5,0l0.1,0l0.1,0l0.2,0c0.6,0.1,1.3,0.2,2,0.2h1.8
			c2.8,0,5.5-0.7,7.9-1.5l0,0l0,0c2.4-0.8,4.6-1.8,6.6-2.6l0.1,0l0.1,0c2.2-1.1,4.5-2,6.8-2.7l0.1,0C103.2,4.4,104.5,4,105.6,4
			 M105.6,0c-1.7,0-3.4,0.5-5.1,1c-2.6,0.8-5.1,1.8-7.5,3c-2,0.9-4.1,1.8-6.2,2.5c-2.2,0.7-4.4,1.3-6.7,1.3c-0.6,0-1.2,0-1.8,0
			c-0.5,0-1-0.1-1.6-0.2c-0.4-0.1-0.9-0.1-1.3-0.1c-0.6,0-1.2,0.1-1.8,0.1c-1,0.1-1.9,0.7-2.7,1.3c-1,0.6-1.6,1.6-1.6,2.8
			c0,1.5,0,3,0,4.5c0,0.4-0.1,0.7-0.5,1c-1.2,1-2.4,2-3.2,3.3c-0.9,1.5-1.7,3-2,4.8c-0.2,1.2,0.1,2.1,1.1,2.7c0.5,0.3,1,0.4,1.4,0.7
			c0.5,0.3,1,0.5,1.3,1.1c0.5,1,0.6,1.9,0,3.1c-0.5,1-1.2,1.7-2.2,2.2c-0.6,0.3-1.3,0.4-2,0.4c-0.6,0-1.2-0.1-1.8-0.2
			c-2.1-0.5-4.1-1.4-6.2-2.1c-0.7-0.3-1.5-0.4-2.3-0.4c-0.7,0-1.4,0.1-2,0.3c-1.8,0.4-3.5,1.2-5.2,2c-1.5,0.7-3,1-4.5,1
			c-0.2,0-0.4,0-0.7,0c-0.8-0.1-1.7-0.3-2.4-0.7c-0.8-0.5-1.6-1.1-2.3-1.8c-1-0.9-2-2-3-3c-1.3-1.3-2.8-2.1-4.5-2.8
			c-0.9-0.3-1.9-0.4-2.8-0.6c-0.9-0.1-1.8-0.3-2.6-0.3s-1.7,0.1-2.6,0.4c-3.1,1-5.9,2.5-7.8,5.3c-0.7,1-1.4,2-1.8,3.2
			c-0.3,1-0.6,2.1-0.9,3.1c-0.3,0.9-1.3,1.6-2.2,1.7c-0.1,0-0.2,0-0.3,0c-0.8,0-1.3-0.4-1.7-1.1c-0.4-0.8-1.2-1.2-2.1-1.2
			c-0.5,0-1.1,0.2-1.6,0.5c-1.5,0.9-1.6,2.5-2.1,3.9C0,45.5-0.5,48.2,0.2,51c0.3,1.2,0.9,2.1,1.6,3c0.8,1,2,1.7,3.1,2.3
			c0.7,0.4,1.5,0.9,2,1.6c0.6,0.9,0.9,1.9,0.9,3c-0.1,1,0.1,2,0.6,2.9c0.4,0.6,0.9,0.9,1.6,0.9s1.4,0,2,0c1.9,0,3.3-0.8,4.2-2.4
			c0.4-0.7,0.9-1.2,1.5-1.4c0.9-0.3,1.7-0.6,2.7-0.6c0.1,0,0.3,0,0.4,0c0.5,0,1-0.1,1.5-0.2c0.8-0.1,1.6-0.4,2.5-0.4
			c0.4,0,0.7,0.2,0.7,0.6c0.2,0.9,0.2,0.9,1.1,0.9c0.5,0,0.8,0.2,0.9,0.6c0.1,0.3,0.2,0.6,0.7,0.7c1.5,0.5,1.5,1.9,1,3.1
			c-0.3,0.6-0.5,1.1-0.4,1.7c0.1,0.7-0.1,1.2-0.4,1.8c-0.7,1.1-1.6,2.1-2.6,3c-1.5,1.4-3.3,2.4-5.2,3.2c-1,0.4-2,2.1-1.6,3.3
			c0.6,1.9,1.1,3.8,2.3,5.5c1.1,1.7,2.4,3.2,4.1,4.4c0.4,0.2,0.7,0.6,0.5,1.2c-0.3,0.9,0.4,1.5,1,2c0.3,0.2,0.7,0.4,1,0.4
			c0.3,0,0.6-0.1,0.9-0.4c0.1-0.1,0.3-0.1,0.4-0.1c0.4,0,0.7,0,1.1,0c1.5,0,3,0.2,4.3,1c2.2,1.3,4.2,2.7,6.5,3.6
			c0.7,0.3,1.3,0.8,2.1,0.8c0.6,0,0.7-0.1,0.7-0.7c0-2.8-0.1-5.6,0-8.4c0-1.5-0.4-3-0.5-4.5c-0.1-1.1-0.4-2.1-0.4-3.2
			c0-0.8,0.1-1.7,0-2.5c-0.2-1.5,0.7-2.3,1.8-3c1.1-0.7,2.5-0.8,3.7-0.9c0.8,0,1.7-0.1,2.5-0.1s1.7,0,2.5,0.1c1.1,0,2.2-0.3,3.2-0.6
			c1-0.4,2-0.3,3-0.4c0.3,0,0.5,0.1,0.7,0.2c0.5,0.3,1,0.7,1.5,1.1c1.6,1.5,2.9,3.3,4.2,5c1,1.3,1.8,2.8,3,3.9c0.7,0.7,1.5,1,2.5,1
			c1.2,0,2.4-0.2,3.7-0.5c0.6-0.1,1.1-0.1,1.7-0.1c1.2,0,2.4,0.2,3.6,0.4c0.5,0.1,1,0.1,1.4,0.3c1.2,0.5,2.4,1.2,3.5,1.8
			c2,1.2,2.7,3,3.1,5c0.1,0.7,0.3,1.4,0.6,2c0.7,1.1,1.4,2.1,2.3,3c0.6,0.6,1.4,1.1,2,1.7c1.5,1.5,3.1,2.4,5.1,2.4
			c0.2,0,0.4,0,0.6,0c1.5-0.1,2.9-0.6,4.1-1.7c1.3-1.2,2.7-2.2,4.2-3c1.8-1,3.2-2.4,4.3-4c0.8-1.2,1.7-1.5,3-1.6c0.1,0,0.3,0,0.4,0
			c1.4,0,2.7,0.4,4,0.8c0.8,0.3,1.6,0.4,2.4,0.4c0.5,0,0.9-0.2,1.2-0.7c0.2-0.4,0.5-0.7,0.8-1c0.6-0.8,1.5-1.2,2.4-1.5
			c1-0.3,2-0.7,3.1-0.7c0.1,0,0.2,0,0.3,0c2.1,0.1,4.1,0,6.2,0.2c3.6,0.3,7.2,0,10.8,0.3c1.2,0.1,2.3,0.5,3.4,0.9
			c0.3,0.1,0.5,0.3,0.7,0.5c0.3,0.3,0.6,0.7,1,1c0.6,0.5,1.5,0.8,2.3,0.8c0.9,0,1.9-0.4,2.5-1.3c0.5-0.7,0.6-1.6,0.7-2.3
			c0.1-1.8,0.3-3.7-0.2-5.5c-0.2-0.9-0.3-1.9-0.7-2.8c-0.5-1.3-0.9-2.7-1.8-3.9c-0.1-0.3-0.3-0.5-0.2-0.8c0.4-0.1,0.9-0.3,1.4-0.3
			c0.1,0,0.2,0,0.3,0c0.2,0,0.4,0,0.6,0c0.9,0,1.8-0.2,2.7-0.3c1.4-0.2,2.9-0.1,4.3-0.4c0.7-0.2,1.3-0.3,1.9-0.7
			c0.4-0.2,0.5-0.6,0.6-1.1c0-0.6-0.2-1.1-0.3-1.7c-0.1-1.3,0.5-2.5,0.8-3.7c0.2-0.9,0.9-1.7,1-2.6c0.1-1.2,0.8-1.8,2.1-1.9
			c0.3,0,0.5,0,0.8,0c0.8,0,1.5,0,2.3,0c1,0,2.1-0.1,3.1-0.4c1-0.3,1.8-0.8,2.5-1.4c1.5-1.2,2.2-2.9,2.8-4.6
			c0.4-1.2,1.1-2.1,1.7-3.1c0.8-1.3,1.9-2.2,3-3.2c0.4-0.4,0.9-0.9,1.5-1.1c1.1-0.4,1.4-1.2,1.2-2.2c-0.1-0.7-0.3-1.5-1-1.9
			c-0.6-0.4-1.4-0.6-2.1-0.6c-0.3,0-0.7,0-1,0.1c-0.5,0.1-0.9,0.2-1.4,0.2c-0.9,0-1.8-0.2-2.7-0.8c-0.8-0.5-1.5-1.3-2.1-2.1
			c-1.1-1.5-2-3-3-4.5c-0.7-1-1.6-1.9-2.6-2.6c-0.9-0.7-1.9-0.8-3-0.8c-0.3,0-0.7,0-1,0c-0.8,0-1.5,0.3-2.2,0.8
			c-0.6,0.5-1.1,1.2-2,1.2c-0.1,0-0.2,0-0.3,0c-0.2,0.2-0.4,0.2-0.5,0.2c-0.4,0-0.6-0.3-0.9-0.6c-0.8-1-1.7-1.4-2.9-1.4
			c-0.6,0-1.3,0.1-2,0.4c-0.7,0.3-1.3,0.7-2,0.9c-0.3,0.1-0.5,0.2-0.6,0.2c-0.2,0-0.3-0.1-0.6-0.5c-0.9-1.2-1.4-2.5-2.2-3.7
			c-1.5-2.2-2.8-4.5-4.2-6.7c-1-1.7-2.1-3.3-3.2-4.9c-1-1.4-2-2.8-3-4.2c-1.2-1.6-2.4-3.2-3.5-4.9c-0.5-0.6-1.1-1-1.8-1
			c-0.5,0-1,0.2-1.4,0.6c-0.8,0.7-1.3,1.6-1.8,2.5c-0.3,0.6-0.8,1.1-1.2,1.6c-0.4,0.4-0.9,0.9-1.6,1c-0.2,0-0.4,0-0.6,0
			c-1.2,0-2.3-0.3-3.3-1c-1.2-0.9-2.3-1.9-3.4-2.9c-1-0.9-2.2-1.5-3.6-1.5c-0.1,0-0.2,0-0.3,0c-1.1,0-2.3,0-3.4,0
			c-1,0-1.7-0.5-2.2-1.4s-0.9-1.8-1.1-2.7c-0.8-2.9-3.6-3.9-5.9-4.3C106.4,0,106,0,105.6,0L105.6,0z"/>
	</g>
	<g>
		
			<linearGradient id="SVGID_2_" gradientUnits="userSpaceOnUse" x1="2.011" y1="52.127" x2="186.365" y2="52.127" gradientTransform="matrix(1 0 0 -1 0 102)">
			<stop  offset="0" style="stop-color:#423795"/>
			<stop  offset="0.302" style="stop-color:#873695"/>
			<stop  offset="0.5608" style="stop-color:#A93695"/>
			<stop  offset="1" style="stop-color:#DC2329"/>
		</linearGradient>
		<path class="st2" d="M98.6,97.9c-1.3,0-2.5-0.6-3.7-1.8c-0.4-0.4-0.9-0.8-1.2-1.1c-0.3-0.2-0.6-0.5-0.8-0.7
			c-0.6-0.6-1.2-1.4-1.7-2.2l-0.4-0.5c-0.1-0.2-0.2-0.6-0.3-1.1l0-0.1c-0.4-1.9-1.2-4.5-4-6.3c-1.1-0.7-2.4-1.4-3.8-2
			c-0.6-0.2-1.1-0.3-1.4-0.3c-0.1,0-0.2,0-0.3,0c-1.3-0.4-2.6-0.6-3.8-0.6c-0.8,0-1.6,0.1-2.4,0.2c-0.3,0-0.6,0.1-0.9,0.2
			c-0.9,0.2-1.7,0.3-2.5,0.3c-0.4,0-0.7-0.1-1.1-0.5c-0.7-0.7-1.2-1.4-1.8-2.3c-0.3-0.5-0.7-0.9-1-1.4C66.4,76,65,74,63.2,72.5
			c-0.6-0.5-1.2-0.9-1.8-1.3l-0.1-0.1c-0.3-0.1-0.8-0.4-1.6-0.4h-0.1l-0.1,0c-0.2,0-0.5,0-0.7,0c-0.8,0-1.8,0.1-2.8,0.5
			c-0.8,0.3-1.5,0.5-2,0.5c-0.1,0-0.2,0-0.3,0l-0.1,0h-0.1c-0.6,0-1.1,0-1.7,0c-0.6,0-1.2,0-1.7,0c-0.6,0-1.2,0-1.8,0
			c-1.5,0.1-3.1,0.2-4.7,1.2c-0.8,0.5-2.9,1.9-2.7,4.8l0,0.1c0,0.4,0,0.9,0,1.4c0,0.3,0,0.6,0,0.9c0,0.9,0.1,1.7,0.3,2.4
			c0.1,0.4,0.1,0.7,0.2,1c0,0.6,0.2,1.3,0.3,1.9c0.1,0.8,0.3,1.6,0.2,2.2c-0.1,2,0,3.9,0,5.8c0,0.3,0,0.6,0,0.8
			c-1.5-0.6-3-1.5-4.4-2.4c-0.6-0.4-1.3-0.8-1.9-1.1c-2-1.2-4-1.3-5.3-1.3c-0.4,0-0.7,0-1.1,0c-0.5,0-0.9,0.1-1.2,0.3
			c0.1-0.8,0.1-2.1-1.4-3.1c-1.4-1-2.4-2.3-3.6-3.9c-0.7-1-1.1-2.3-1.6-3.7c-0.1-0.4-0.3-0.8-0.4-1.3c0-0.2,0.3-0.7,0.5-0.9
			c2.4-1,4.3-2.2,5.8-3.6c1-0.9,2.1-2,3-3.5l0.1-0.1c0.4-0.7,0.8-1.8,0.6-3c0,0,0-0.1,0.2-0.5c0.6-1.3,0.7-2.6,0.3-3.7
			c-0.4-0.9-1.1-1.6-2-2c-0.6-1.1-1.4-1.5-2-1.5c-0.4-0.9-1.3-1.5-2.3-1.5c-0.2,0-0.3,0-0.5,0c-0.9,0-1.6,0.2-2.2,0.4l-0.4,0.1
			c-0.3,0.1-0.7,0.1-0.9,0.1c-0.1,0-0.3,0-0.4,0c-1.1,0-2,0.3-2.9,0.6L17,58.9c-1.2,0.3-2.2,1.2-2.7,2.4c-0.5,0.9-1.3,1.3-2.4,1.3
			h-1.8C10.1,62,10,61.4,10,60.8c0.1-1.4-0.3-2.8-1.2-4.2c-0.7-1-1.7-1.7-2.7-2.2l-0.3-0.1c-0.9-0.5-1.7-0.9-2.2-1.6
			c-0.7-0.8-1.1-1.5-1.3-2.3C2,48.8,2,47.3,2,45.6c0-0.9,0-1.9,0-2.8c0.1-0.2,0.1-0.4,0.2-0.6c0.3-1,0.4-1.5,0.9-1.8
			c0.2-0.1,0.4-0.1,0.5-0.1c0.2,0,0.4,0.1,0.4,0.1c0.4,0.6,1.3,2.1,3.4,2.1c0.2,0,0.3,0,0.5,0c1.5-0.2,3.3-1.2,3.9-3.1
			c0.2-0.5,0.3-1,0.5-1.6c0.1-0.5,0.3-1,0.4-1.5c0.3-0.9,0.9-1.7,1.5-2.6c1.4-2.1,3.5-3.5,6.8-4.5c0.6-0.2,1.3-0.3,2.1-0.3
			c0.7,0,1.4,0.1,2.1,0.2c0.3,0.1,0.6,0.1,0.9,0.2c0.6,0.1,1.2,0.2,1.7,0.4c1.4,0.5,2.7,1.3,3.7,2.3c0.3,0.3,0.6,0.7,1,1
			c0.7,0.7,1.3,1.4,2.1,2.1c0.7,0.7,1.5,1.4,2.5,2c0.9,0.7,2.2,1,3.4,1c0.2,0,0.5,0,0.7,0c1.9,0,3.7-0.4,5.4-1.2
			c1.7-0.8,3.2-1.5,4.8-1.9c0.6-0.1,1.2-0.2,1.7-0.2c0.6,0,1,0.1,1.5,0.2c0.8,0.3,1.5,0.5,2.2,0.8c1.4,0.5,2.8,1,4.2,1.4
			c0.7,0.2,1.4,0.3,2.1,0.3c1,0,2-0.2,2.9-0.6c1.4-0.6,2.5-1.7,3.2-3.2c1.1-2,0.5-3.7,0-4.8c-0.6-1.1-1.4-1.6-1.9-1.9l-0.3-0.2
			L67,26.6c-0.4-0.1-0.8-0.3-0.9-0.4L66,26.1l-0.1-0.1c-0.2-0.1-0.2-0.1-0.2-0.7c0.2-1.4,0.8-2.6,1.7-4.1c0.5-0.9,1.4-1.8,2.7-2.7
			c0.9-0.6,1.3-1.5,1.3-2.6v-4.5c0-0.5,0.2-0.8,0.6-1.1l0.2-0.1c0.6-0.4,1.2-0.8,1.8-0.9c0.5-0.1,1-0.1,1.5-0.1c0.4,0,0.7,0,0.9,0.1
			c0.6,0.1,1.2,0.2,2,0.2h1.8c0.1,0,0.3,0,0.5,0c2.6,0,5-0.8,6.9-1.4c2.2-0.7,4.5-1.7,6.3-2.6c2.2-1,4.7-2.1,7.3-2.9
			c1.7-0.5,3.1-0.9,4.5-0.9c0.3,0,0.6,0,0.9,0.1c2.5,0.4,3.8,1.3,4.2,2.8l0,0.1c0.3,0.9,0.7,2,1.2,3c0.9,1.6,2.2,2.4,3.9,2.4h3.5
			c0,0,0.2,0,0.3,0c0.8,0,1.5,0.3,2.2,1c1.1,1,2.3,2.1,3.5,3c1.3,1,2.7,1.4,4.5,1.4c0.3,0,0.5,0,0.8,0l0.1,0
			c1.1-0.2,2.1-0.7,2.9-1.7c0.1-0.1,0.2-0.2,0.3-0.3c0.4-0.4,0.8-0.9,1.1-1.6c0.3-0.6,0.7-1.3,1.3-1.9l0.1-0.1c0,0,0.1,0,0.2,0.1
			c1.2,1.6,2.4,3.2,3.4,4.8l3.1,4.3c1,1.4,2,3,3.1,4.8c0.5,0.8,1,1.7,1.6,2.5c0.8,1.4,1.7,2.8,2.7,4.2c0.3,0.4,0.5,0.9,0.8,1.4
			c0.4,0.8,0.8,1.5,1.4,2.3l0.2,0.2c0.3,0.4,0.9,1.1,2,1.1c0.5,0,0.8-0.1,1.2-0.3l0,0c0.6-0.2,1.1-0.4,1.5-0.7
			c0.2-0.1,0.4-0.2,0.6-0.3c0.4-0.2,0.9-0.3,1.2-0.3c0.5,0,0.9,0.2,1.3,0.7c0.3,0.4,1.1,1.4,2.4,1.4c0.3,0,0.6,0,1-0.2
			c1.3-0.1,2.2-0.8,2.7-1.3c0.1-0.1,0.2-0.2,0.3-0.3c0.5-0.4,0.8-0.4,1-0.4l0.1,0c0.3,0,0.6,0,0.9,0c0.8,0,1.3,0.1,1.8,0.4
			c0.9,0.6,1.6,1.3,2.2,2.1c0.3,0.4,0.6,0.9,0.9,1.4c0.7,1,1.3,2.1,2.1,3.1c0.6,0.8,1.4,1.7,2.6,2.5c1.2,0.7,2.4,1.1,3.8,1.1
			c0.6,0,1.2-0.1,1.8-0.2l0.1,0c0.2,0,0.3-0.1,0.5-0.1c0.2,0,0.5,0,0.9,0.3c0.1,0.1,0.1,0.4,0.2,0.6c-1,0.3-1.7,1.1-2.1,1.5
			c-0.3,0.3-0.5,0.5-0.8,0.7c-0.8,0.8-1.8,1.6-2.5,2.8c-0.1,0.2-0.3,0.4-0.4,0.6c-0.5,0.8-1.1,1.8-1.5,2.8c-0.5,1.5-1.1,2.8-2.2,3.7
			c-0.7,0.5-1.3,0.9-1.9,1.1c-0.7,0.2-1.4,0.3-2.4,0.3c-0.4,0-0.7,0-1.1,0c-0.4,0-0.8,0-1.2,0c-0.3,0-0.6,0-0.9,0
			c-2.3,0.2-3.6,1.5-4,3.6l0,0.1c0,0.2-0.2,0.5-0.4,0.9c-0.2,0.4-0.4,0.8-0.5,1.2l0,0.1l0,0.1c-0.1,0.3-0.2,0.6-0.3,0.9
			c-0.3,0.9-0.7,2.1-0.6,3.4l0,0.1l0,0.1c0,0.3,0.1,0.5,0.2,0.8c0,0.1,0,0.1,0,0.2c-0.3,0.1-0.6,0.2-0.9,0.3
			c-0.6,0.1-1.3,0.2-2.1,0.2c-0.6,0-1.3,0.1-2,0.2c-0.4,0-0.8,0.1-1.2,0.2c-0.5,0.1-1,0.2-1.4,0.2c-0.1,0-0.2,0-0.3,0l-0.2,0l-0.2,0
			c-0.7,0.1-1.2,0.3-1.6,0.4c-0.1,0-0.3,0.1-0.4,0.1l-1.1,0.2l-0.4,1.1c-0.4,1.1,0,1.9,0.2,2.2l0.1,0.2l0.1,0.1
			c0.5,0.7,0.9,1.7,1.2,2.6c0.1,0.3,0.2,0.5,0.3,0.8c0.2,0.6,0.4,1.3,0.5,2.1l0.1,0.4c0.2,1.1,0.2,2.3,0.2,3.7c0,0.5,0,0.9,0,1.4
			c0,0.5-0.1,0.8-0.2,1l-0.1,0.1c-0.4,0.5-0.8,0.6-1,0.6c-0.3,0-0.6-0.1-0.8-0.3l-0.1-0.1l-0.1-0.1c-0.1-0.1-0.3-0.3-0.4-0.4
			c-0.1-0.1-0.2-0.3-0.4-0.4c-0.3-0.3-0.7-0.7-1.5-1c-1.1-0.4-2.4-0.9-3.9-1c-1.9-0.2-3.8-0.2-5.6-0.2c-1.8,0-3.5,0-5.2-0.1
			c-1.3-0.1-2.6-0.1-3.9-0.2c-0.8,0-1.6,0-2.4-0.1c-0.1,0-0.3,0-0.4,0c-1.1,0-2.1,0.3-2.9,0.6c-0.2,0.1-0.5,0.2-0.7,0.2l-0.1,0
			c-1,0.3-2.3,0.9-3.3,2.1c-0.3,0.3-0.6,0.6-0.8,1c-0.5,0-0.9-0.1-1.3-0.3c-1.2-0.4-2.9-0.9-4.6-0.9c-0.2,0-0.4,0-0.6,0
			c-1.4,0.1-3.2,0.5-4.5,2.5c-0.9,1.5-2.1,2.5-3.6,3.4c-1.6,1-3.1,2.1-4.5,3.2c-0.8,0.7-1.7,1.1-3.1,1.2
			C98.9,97.9,98.8,97.9,98.6,97.9z"/>
		<path class="st1" d="M105.8,3.8c0.2,0,0.4,0,0.6,0c2.4,0.4,2.6,1.1,2.6,1.4l0,0.1l0,0.1c0.3,1,0.7,2.2,1.4,3.4
			c1.6,2.9,4,3.5,5.7,3.5h3.4h0.1l0.1,0l0.1,0c0.1,0,0.4,0,0.9,0.5c1.2,1,2.3,2.1,3.7,3.1c1.6,1.2,3.5,1.8,5.7,1.8
			c0.3,0,0.6,0,0.9,0l0.1,0l0.1,0c1.1-0.2,2.8-0.7,4.2-2.5c0.1-0.1,0.2-0.2,0.2-0.3c0.3-0.4,0.7-0.9,1.1-1.5
			c0.6,0.9,1.3,1.8,1.8,2.7l0,0.1l0.1,0.1l3,4.2c1,1.4,2,3,3.1,4.8c0.5,0.8,1,1.6,1.5,2.5c0.9,1.4,1.8,2.9,2.7,4.3
			c0.2,0.4,0.5,0.8,0.7,1.3c0.4,0.8,0.9,1.7,1.6,2.6l0.1,0.1l0.1,0.1l0.1,0.1c0.4,0.5,1.5,1.8,3.5,1.8c0.8,0,1.5-0.2,1.9-0.4
			c0.7-0.2,1.3-0.5,1.8-0.8c0.2-0.1,0.3-0.2,0.5-0.2c0.1-0.1,0.2-0.1,0.3-0.1c0.5,0.6,1.8,2,3.9,2c0.4,0,0.9-0.1,1.5-0.2
			c1.9-0.2,3-1.3,3.6-1.8c0.1,0,0.1-0.1,0.2-0.1c0,0,0,0,0.1,0l0.1,0c0.3,0,0.6,0,0.8,0c0.4,0,0.5,0,0.6,0c0,0,0,0,0,0l0.1,0l0.1,0
			c0.6,0.4,1.2,1,1.6,1.6c0.3,0.5,0.6,0.9,0.9,1.4c0.7,1.1,1.4,2.2,2.2,3.3c0.8,1,1.6,2.1,3.1,3l0.1,0l0.1,0
			c1.1,0.7,2.3,1.1,3.5,1.3c-0.8,0.7-1.6,1.6-2.3,2.8c-0.1,0.2-0.2,0.4-0.4,0.6c-0.6,0.9-1.2,1.9-1.7,3.2c-0.5,1.4-0.9,2.3-1.5,2.8
			c-0.6,0.4-1,0.6-1.3,0.8l0,0l0,0c-0.4,0.1-0.9,0.2-1.7,0.2c-0.3,0-0.7,0-1,0c-0.4,0-0.8,0-1.3,0c-0.3,0-0.6,0-1,0l-0.1,0l-0.1,0
			c-3.1,0.3-5.3,2.2-5.7,5.3l0,0.1c0,0.1-0.1,0.2-0.2,0.4c-0.2,0.4-0.4,0.9-0.7,1.5l0,0.1l0,0.1c-0.1,0.2-0.1,0.5-0.2,0.8
			c-0.3,0.9-0.7,2.1-0.7,3.6c-0.3,0-0.6,0-0.8,0c-0.6,0-1.4,0.1-2.1,0.2c-0.4,0-0.9,0.1-1.2,0.2c-0.4,0.1-0.9,0.1-1.1,0.1
			c0,0-0.1,0-0.1,0l-0.4,0l-0.4,0.1c-0.9,0.1-1.6,0.3-2,0.5c-0.1,0-0.1,0-0.2,0.1l-2.2,0.4l-0.7,2.2c-0.4,1.2-0.3,2.5,0.3,3.8
			l0.2,0.3l0.2,0.3c0.4,0.5,0.6,1.2,1,2.1c0.1,0.2,0.2,0.5,0.3,0.7c0.2,0.5,0.3,1.2,0.5,1.9l0.1,0.4c0.2,0.9,0.2,2,0.1,3.2
			c0,0,0,0.1,0,0.1c-0.4-0.4-1-0.8-1.9-1.1c-1.3-0.5-2.7-1-4.4-1.1c-2-0.2-3.9-0.2-5.7-0.2c-1.8,0-3.4,0-5-0.1
			c-1.4-0.1-2.8-0.1-4.1-0.2c-0.8,0-1.5,0-2.3,0c-0.2,0-0.4,0-0.6,0c-1.4,0-2.6,0.4-3.5,0.7c-0.2,0.1-0.4,0.1-0.6,0.2l-0.1,0l-0.1,0
			c-1.2,0.4-2.8,1.1-4.1,2.6c-0.1,0.1-0.1,0.1-0.2,0.2c-1.3-0.4-3.1-1-5.2-1c-0.2,0-0.5,0-0.7,0l0,0l0,0c-1,0.1-4,0.3-6,3.4l0,0l0,0
			c-0.7,1.1-1.7,2-2.9,2.7l-0.1,0l-0.1,0c-1.7,1-3.3,2.1-4.7,3.4l-0.1,0l-0.1,0c-0.1,0.1-0.6,0.5-1.8,0.7c-0.1,0-0.1,0-0.2,0
			c-0.5,0-1.2-0.1-2.2-1.2l0,0l0,0c-0.5-0.5-0.9-0.8-1.4-1.2c-0.3-0.2-0.5-0.4-0.6-0.5c-0.5-0.5-1-1.2-1.5-1.9
			c-0.1-0.1-0.1-0.2-0.2-0.3c0-0.1-0.1-0.3-0.1-0.5l0-0.1l0-0.1c-0.7-3.5-2.3-6-4.9-7.6c-1.2-0.8-2.6-1.5-4.1-2.1l0,0l0,0
			c-0.8-0.3-1.4-0.4-1.8-0.5c0,0-0.1,0-0.1,0c-1.5-0.4-2.9-0.6-4.3-0.6c-0.9,0-1.8,0.1-2.7,0.3c-0.3,0-0.6,0.1-0.8,0.2
			c-0.7,0.1-1.4,0.3-1.9,0.3c-0.5-0.5-0.9-1.2-1.4-1.9c-0.3-0.5-0.7-0.9-1-1.4c-1.4-1.9-2.8-3.9-4.8-5.6l-0.1-0.1l-0.1-0.1
			c-0.6-0.5-1.2-1-1.9-1.4l-0.1-0.1l-0.1-0.1c-0.4-0.2-1.2-0.6-2.5-0.6h-0.2l-0.2,0c-0.2,0-0.4,0-0.6,0c-0.9,0-2.1,0.1-3.5,0.6
			c-0.7,0.3-1.1,0.3-1.3,0.3c0,0,0,0-0.1,0l-0.2,0h-0.2c-0.5,0-1.1,0-1.6,0c-0.6,0-1.2,0-1.8,0c-0.7,0-1.3,0-1.9,0.1l0,0l0,0
			c-1.5,0.1-3.6,0.3-5.5,1.5c-2.6,1.7-3.8,3.9-3.6,6.6l0,0.1l0,0.1c0,0.2,0,0.6,0,1c0,0.3,0,0.7,0,1c0,1,0.2,1.9,0.3,2.7
			c0.1,0.3,0.1,0.6,0.1,0.9c0.1,0.8,0.2,1.5,0.3,2.1c0.1,0.7,0.2,1.3,0.2,1.8l0,0.1l0,0.1c0,1.1,0,2.2,0,3.3
			c-0.4-0.3-0.9-0.5-1.3-0.8c-0.6-0.4-1.3-0.8-1.9-1.2c-2.4-1.4-4.8-1.6-6.3-1.6c-0.2,0-0.4,0-0.6,0c-0.3-0.8-0.9-1.7-2-2.4
			c-1.1-0.8-2-1.9-3.1-3.3c-0.6-0.9-0.9-2-1.4-3.3c0,0,0-0.1,0-0.1c2.1-1,3.9-2.1,5.3-3.5c1.2-1,2.4-2.3,3.4-3.9l0.1-0.1l0.1-0.1
			c0.2-0.5,0.9-1.9,0.8-3.6c0.9-1.8,1-3.7,0.3-5.3c-0.5-1.2-1.3-2.1-2.4-2.8c-0.6-0.9-1.4-1.5-2.1-1.7c-0.8-1.1-2-1.7-3.5-1.8
			c-0.2,0-0.4,0-0.6,0c-1.1,0-2.1,0.3-2.7,0.4c-0.1,0-0.2,0.1-0.3,0.1c-0.2,0-0.4,0.1-0.6,0.1c-0.1,0-0.3,0-0.4,0
			c-1.4,0-2.6,0.4-3.5,0.7c-0.1,0-0.3,0.1-0.4,0.1c-1.7,0.5-3.1,1.7-3.9,3.4c-0.1,0.2-0.2,0.2-0.5,0.2c0.1-1.7-0.5-3.5-1.6-5.1
			l0-0.1l0-0.1c-0.9-1.3-2.2-2.1-3.3-2.7l0,0l0,0l-0.2-0.1c-0.6-0.3-1.3-0.7-1.5-1l0-0.1l0-0.1c-0.5-0.7-0.8-1.1-0.9-1.5
			C4,48.6,4,47.2,4,45.7c0-0.8,0-1.6,0-2.4c1,0.8,2.1,1.1,3.5,1.1c0.2,0,0.5,0,0.7,0c2.6-0.3,4.9-2.1,5.6-4.5
			c0.2-0.5,0.3-1.1,0.5-1.6c0.1-0.5,0.3-1,0.4-1.4c0.2-0.6,0.7-1.3,1.3-2.1l0,0l0,0c1.1-1.7,2.9-2.8,5.7-3.7
			c0.4-0.1,0.9-0.2,1.5-0.2c0.5,0,1.1,0.1,1.7,0.2l0,0l0,0c0.3,0.1,0.6,0.1,0.9,0.2c0.5,0.1,1,0.2,1.3,0.3c1.2,0.4,2.1,1,3,1.8
			c0.3,0.3,0.6,0.6,0.9,1c0.7,0.7,1.3,1.4,2.1,2.1c0.8,0.8,1.8,1.6,2.8,2.2c1.3,0.9,2.8,1.3,4.5,1.4c0.3,0,0.5,0,0.8,0
			c2.2,0,4.2-0.5,6.2-1.4c1.5-0.7,3-1.4,4.3-1.7c0.5-0.1,0.9-0.2,1.3-0.2c0.3,0,0.6,0,0.8,0.1l0,0l0,0c0.7,0.2,1.3,0.5,2.1,0.7
			c1.4,0.5,2.9,1.1,4.4,1.4c0.9,0.2,1.7,0.3,2.6,0.3c1.3,0,2.6-0.2,3.7-0.7l0,0l0,0c1.7-0.8,3.2-2.2,4.1-4c1.1-2.1,1.2-4.3,0.1-6.6
			l0-0.1l0-0.1c-0.8-1.6-2.1-2.3-2.7-2.6l-0.2-0.1l-0.3-0.2l-0.1,0c0.3-0.8,0.7-1.5,1.2-2.5c0.4-0.7,1.2-1.4,2.2-2.2
			c1-0.7,2.1-2,2.1-4.2l0-4.1c0.3-0.2,0.8-0.5,1-0.6c0.4,0,0.8-0.1,1.1-0.1c0.3,0,0.4,0,0.5,0c0.6,0.1,1.4,0.3,2.4,0.3h1.7
			c0.2,0,0.4,0,0.6,0c2.9,0,5.5-0.8,7.5-1.5c2.3-0.8,4.6-1.8,6.6-2.6c2.1-1,4.6-2.1,7-2.8C103.4,4.2,104.6,3.8,105.8,3.8 M105.8-0.2
			c-1.8,0-3.5,0.5-5.1,1c-2.6,0.8-5.1,1.9-7.5,3c-2,0.9-4.1,1.8-6.2,2.5c-2,0.7-4.1,1.3-6.2,1.3c-0.2,0-0.3,0-0.5,0
			c-0.6,0-1.2,0-1.8,0s-1.1-0.1-1.6-0.2c-0.4-0.1-0.9-0.1-1.3-0.1c-0.6,0-1.2,0.1-1.8,0.1c-1,0.2-1.9,0.8-2.7,1.3
			c-1,0.6-1.6,1.5-1.6,2.8c0,1.5,0,3,0,4.5c0,0.4-0.1,0.7-0.5,1c-1.2,0.9-2.4,2-3.2,3.3c-0.9,1.5-1.7,3-2,4.8
			c-0.2,1.2,0.1,2.1,1.1,2.7c0.4,0.3,0.9,0.5,1.4,0.7c0.5,0.3,1,0.5,1.3,1.1c0.5,1.1,0.6,2,0,3.1c-0.5,1-1.3,1.8-2.2,2.2
			c-0.7,0.3-1.4,0.4-2.1,0.4c-0.6,0-1.1-0.1-1.7-0.2c-2.1-0.5-4.1-1.4-6.2-2.1c-0.7-0.3-1.4-0.3-2.2-0.3s-1.5,0.1-2.2,0.3
			c-1.8,0.4-3.5,1.2-5.2,2c-1.5,0.7-3,1-4.5,1c-0.2,0-0.4,0-0.7,0c-0.8,0-1.7-0.2-2.4-0.7c-0.8-0.5-1.6-1.1-2.3-1.8c-1.1-1-2-2-3-3
			c-1.3-1.3-2.8-2.2-4.5-2.8c-0.9-0.3-1.8-0.4-2.8-0.6c-0.8-0.2-1.7-0.3-2.5-0.3c-0.9,0-1.8,0.1-2.7,0.4c-3.1,1-5.9,2.5-7.8,5.3
			c-0.7,1-1.4,2-1.8,3.2c-0.3,1-0.6,2.1-0.9,3.1s-1.3,1.6-2.2,1.7c-0.1,0-0.2,0-0.3,0c-0.8,0-1.3-0.4-1.7-1.1
			c-0.4-0.7-1.2-1.1-2.1-1.1c-0.5,0-1.1,0.1-1.6,0.4c-1.5,1-1.6,2.5-2.1,3.9c0.2,2.8-0.3,5.5,0.4,8.3c0.3,1.2,0.9,2.1,1.6,3
			c0.8,1.1,2,1.7,3.1,2.3c0.7,0.4,1.5,0.9,2,1.6c0.6,0.9,1,1.9,0.9,3c0,1,0.1,2,0.3,3c0.4,0.6,0.9,0.9,1.6,0.9c0.6,0,1.3,0,2,0
			c1.9,0,3.3-0.8,4.2-2.4c0.3-0.7,0.8-1.2,1.5-1.4c0.9-0.3,1.8-0.6,2.8-0.6c0.1,0,0.2,0,0.3,0c0.5,0,1-0.1,1.5-0.2
			c0.7-0.2,1.4-0.4,2.1-0.4c0.1,0,0.2,0,0.4,0c0.4,0,0.6,0.2,0.7,0.6c0.2,0.9,0.2,0.9,1.1,0.9c0.1,0,0.2,0,0.2,0
			c0.3,0,0.5,0.2,0.7,0.6c0.1,0.3,0.3,0.6,0.7,0.7c1.5,0.5,1.6,1.9,1,3.1c-0.3,0.6-0.5,1.1-0.4,1.7c0.1,0.6-0.1,1.2-0.4,1.8
			c-0.7,1.2-1.6,2.1-2.6,3c-1.5,1.4-3.3,2.4-5.2,3.2c-1,0.4-2,2.1-1.6,3.3c0.7,1.9,1.2,3.8,2.3,5.5c1.2,1.7,2.4,3.2,4.1,4.4
			c0.3,0.2,0.7,0.5,0.5,1.2c-0.3,0.9,0.3,1.5,1,2c0.3,0.2,0.6,0.4,1,0.4c0.3,0,0.6-0.1,0.9-0.4c0.1-0.1,0.3-0.1,0.4-0.1
			c0.4,0,0.7,0,1.1,0c1.5,0,3,0.2,4.3,1c2.1,1.2,4.2,2.7,6.5,3.6c0.7,0.3,1.3,0.8,2.1,0.8c0.5,0,0.7-0.1,0.7-0.7
			c0-2.8-0.1-5.6,0-8.4c0.1-1.5-0.4-3-0.5-4.5c-0.1-1-0.4-2.1-0.4-3.2c0-0.8,0.1-1.7,0-2.5c-0.1-1.5,0.7-2.3,1.8-3
			c1.1-0.7,2.4-0.8,3.7-0.9c0.6,0,1.1,0,1.7,0c1.1,0,2.3,0,3.4,0c0.1,0,0.3,0,0.4,0c1,0,1.9-0.3,2.8-0.6c1-0.4,2-0.3,3-0.4
			c0.3,0,0.5,0.1,0.7,0.2c0.5,0.3,1,0.7,1.5,1.1c1.6,1.4,2.9,3.2,4.2,5c1,1.3,1.8,2.7,3,3.9c0.8,0.7,1.6,1,2.5,1
			c1.3,0,2.5-0.3,3.7-0.5c0.7-0.1,1.3-0.2,2-0.2c1.1,0,2.2,0.2,3.3,0.5c0.4,0.1,0.9,0.1,1.4,0.3c1.2,0.5,2.4,1.1,3.5,1.8
			c1.9,1.2,2.7,3,3.1,5c0.1,0.7,0.2,1.4,0.6,2c0.7,1,1.4,2.1,2.3,3c0.6,0.6,1.4,1.1,2,1.7c1.4,1.5,3.1,2.4,5.1,2.4
			c0.2,0,0.4,0,0.6,0c1.6-0.2,3-0.7,4.1-1.7c1.3-1.1,2.7-2.1,4.2-3c1.8-1,3.2-2.3,4.3-4c0.8-1.2,1.8-1.5,3-1.6c0.2,0,0.3,0,0.5,0
			c1.3,0,2.7,0.4,3.9,0.8c0.8,0.3,1.6,0.4,2.4,0.4c0.6,0,1-0.2,1.2-0.7c0.2-0.4,0.5-0.7,0.8-1c0.6-0.8,1.5-1.2,2.4-1.5
			c1-0.3,2-0.7,3.1-0.7c0.1,0,0.2,0,0.3,0c2.1,0.1,4.1,0,6.2,0.2c3.6,0.3,7.2,0,10.8,0.3c1.2,0.1,2.3,0.5,3.4,0.9
			c0.3,0.1,0.5,0.3,0.7,0.5c0.3,0.3,0.6,0.7,1,1c0.6,0.5,1.4,0.8,2.2,0.8c0.9,0,1.9-0.4,2.6-1.3c0.6-0.7,0.7-1.6,0.7-2.3
			c0-1.8,0.2-3.7-0.2-5.5c-0.2-0.9-0.4-1.9-0.7-2.8c-0.5-1.3-0.9-2.7-1.8-3.9c-0.1-0.2-0.2-0.4-0.1-0.7c0.5-0.1,1.1-0.4,1.9-0.5
			c0.2,0,0.3,0,0.5,0c0.9,0,1.9-0.2,2.8-0.3c1.4-0.2,2.9-0.1,4.3-0.4c0.7-0.2,1.3-0.4,1.9-0.7c0.4-0.3,0.6-0.6,0.6-1.1
			c0-0.6-0.2-1.1-0.3-1.7c-0.1-1.3,0.5-2.5,0.8-3.7c0.3-0.9,0.9-1.6,1-2.6c0.2-1.3,0.9-1.8,2.1-1.9c0.3,0,0.5,0,0.8,0
			c0.8,0,1.5,0,2.3,0c1,0,2.1-0.1,3.1-0.4c0.9-0.3,1.7-0.8,2.5-1.4c1.5-1.2,2.2-2.9,2.8-4.6c0.4-1.1,1.1-2.1,1.7-3.1
			c0.8-1.3,2-2.2,3-3.2c0.4-0.4,0.9-0.9,1.5-1.1c1.1-0.4,1.4-1.2,1.2-2.2c-0.2-0.7-0.4-1.5-1-1.9c-0.7-0.4-1.4-0.6-2.1-0.6
			c-0.3,0-0.7,0-1,0.1c-0.5,0.1-1,0.2-1.4,0.2c-0.9,0-1.8-0.2-2.7-0.8c-0.9-0.6-1.5-1.3-2.1-2.1c-1.1-1.4-2-3-3-4.5
			c-0.7-1-1.6-1.9-2.6-2.6c-0.9-0.7-1.9-0.8-3-0.8c-0.3,0-0.7,0-1,0c-0.8,0-1.5,0.3-2.2,0.8c-0.6,0.5-1.1,1.2-2,1.2
			c-0.1,0-0.2,0-0.3,0c-0.2,0.2-0.4,0.2-0.5,0.2c-0.3,0-0.6-0.3-0.9-0.6c-0.8-1-1.7-1.4-2.9-1.4c-0.6,0-1.3,0.1-2,0.4
			c-0.7,0.3-1.3,0.7-2,0.9c-0.3,0.1-0.5,0.2-0.6,0.2c-0.2,0-0.3-0.1-0.6-0.5c-0.9-1.2-1.4-2.5-2.2-3.7c-1.5-2.2-2.8-4.5-4.2-6.7
			c-1-1.6-2.1-3.3-3.2-4.9c-1-1.4-2-2.8-3-4.2c-1.1-1.7-2.3-3.3-3.5-4.9c-0.5-0.6-1.1-1-1.8-1c-0.5,0-1,0.2-1.4,0.6
			c-0.8,0.7-1.4,1.6-1.8,2.5c-0.3,0.6-0.8,1.1-1.2,1.6s-0.9,0.9-1.6,1c-0.2,0-0.4,0-0.6,0c-1.2,0-2.3-0.3-3.3-1
			c-1.2-0.9-2.3-1.9-3.4-2.9c-1-0.9-2.2-1.5-3.6-1.5c-0.1,0-0.2,0-0.3,0c-1.1,0-2.3,0-3.4,0c-1.1,0-1.7-0.5-2.2-1.4
			s-0.8-1.8-1.1-2.7c-0.8-3-3.6-3.9-5.9-4.3C106.6-0.2,106.2-0.2,105.8-0.2L105.8-0.2z"/>
	</g>
</g>
<g>
	<path class="st3" d="M56.1,58.8h8c0.2,1,0.6,1.6,1.2,1.9c0.6,0.4,1.5,0.6,2.5,0.6c1,0,1.7-0.1,2.3-0.5c0.6-0.4,0.8-0.7,0.8-1.3
		c0-1-1.1-1.7-3.4-2.2c-0.5-0.1-0.8-0.2-1.1-0.2c-1.9-0.5-3.4-1-4.5-1.3c-1.1-0.4-1.9-0.7-2.4-1.1c-1-0.7-1.7-1.6-2.2-2.5
		c-0.5-1-0.7-2.1-0.7-3.3c0-2.5,1-4.5,2.9-5.9c1.9-1.5,4.5-2.2,7.9-2.2c3.3,0,5.8,0.7,7.8,2.1c1.9,1.3,2.9,3.3,3.1,5.8h-7.8
		c-0.1-0.7-0.5-1.3-1-1.7c-0.5-0.4-1.3-0.6-2.3-0.6c-0.8,0-1.6,0.1-1.9,0.5c-0.5,0.2-0.6,0.7-0.6,1.3c0,0.8,1.1,1.6,3.4,2.1
		c0.2,0,0.4,0.1,0.5,0.1c0.4,0.1,0.8,0.2,1.5,0.4c2.9,0.7,4.8,1.5,5.8,2.1c1.1,0.7,1.9,1.6,2.4,2.5c0.5,1,0.7,2.1,0.7,3.4
		c0,2.8-1,5-2.9,6.4s-4.7,2.3-8.5,2.3c-3.4,0-6.1-0.7-8-2.3C57.4,63.7,56.3,61.5,56.1,58.8L56.1,58.8z"/>
	<path id="_x31_" class="st3" d="M99.1,56.9h7.8c-0.2,3.3-1.5,5.9-3.5,7.8c-2.2,1.8-5,2.8-8.7,2.8c-4.1,0-7.3-1.2-9.7-3.5
		c-2.3-2.4-3.5-5.6-3.5-9.7s1.2-7.4,3.5-9.7c2.3-2.4,5.5-3.5,9.4-3.5c3.6,0,6.5,0.8,8.7,2.7c2.1,1.8,3.3,4.2,3.5,7.5h-7.9
		c-0.1-1.3-0.5-2.3-1.2-2.9c-0.7-0.6-1.7-1-3-1c-1.6,0-2.8,0.6-3.6,1.7c-0.8,1.2-1.2,2.9-1.2,5.2c0,2.3,0.5,4,1.3,5.2
		c0.8,1.2,2.1,1.8,3.8,1.8c1.2,0,2.3-0.4,3-1.1C98.5,59.3,99,58.2,99.1,56.9L99.1,56.9z"/>
	<polygon id="_x32_" class="st3" points="110.2,66.7 110.2,41.5 118.4,41.5 118.4,49.9 125.8,41.5 135.2,41.5 126.1,50.7 
		136.4,66.7 126.6,66.7 120.4,56.5 118.4,58.7 118.4,66.7 	"/>
</g>
</svg>
